<svg width="142" height="138" viewBox="0 0 142 138" fill="none" xmlns="http://www.w3.org/2000/svg">
<g id="Group 8386">
<g id="Group 8385">
<circle id="Ellipse 198" cx="72.9166" cy="69.1224" r="68.8775" fill="#F7FCFF"/>
<g id="Group">
<path id="Vector" d="M99.0493 3.30615C99.0493 11.6478 99.0735 19.9894 99.0735 28.331C99.0735 41.3769 99.0735 54.3985 99.0493 67.4444C99.0493 68.2446 99.2917 68.7053 99.9707 69.1418C107.367 73.9188 104.481 73.0459 113.186 73.1428C115.563 73.1671 117.939 73.1428 120.364 73.1428C120.364 74.4765 120.364 75.689 120.364 77.0712C119.952 77.0712 119.54 77.0712 119.127 77.0712C115.635 77.0712 112.168 77.0469 108.676 77.0712C106.13 77.0954 103.851 76.4164 101.717 74.9858C97.5701 72.1729 93.375 69.4328 89.2285 66.6199C87.9918 65.7712 86.6338 65.3105 85.1547 65.4075C84.8394 65.4317 84.3545 65.7712 84.2817 66.0379C83.7725 67.7111 83.336 69.4085 82.851 71.2029C83.1905 71.2999 83.4572 71.3969 83.7482 71.4697C86.3671 72.2456 88.1858 74.816 87.9433 77.4349C87.6765 80.272 85.6396 82.4302 82.8753 82.7696C82.2448 82.8424 81.6386 82.8909 81.0081 82.8909C74.4367 82.8909 67.8652 82.8909 61.2695 82.8909C58.1414 82.8909 55.9833 84.4186 55.2316 87.1102C55.1103 87.5467 55.0861 88.0316 54.9891 88.6621C55.5468 88.6621 56.0075 88.6621 56.4683 88.6621C62.0698 88.6864 67.6712 88.5651 73.2485 88.8076C75.9401 88.9288 78.753 89.3411 81.2748 90.311C88.307 93.0027 95.2907 93.0754 102.42 90.8445C107.827 89.1471 113.405 88.3711 119.079 88.6621C119.467 88.6864 119.855 88.6621 120.315 88.6621C120.315 89.9715 120.315 91.2082 120.315 92.6874C112.992 91.8387 106.057 93.7544 99.0493 95.7428C99.0493 101.078 99.0493 106.412 99.0493 111.917C90.6592 111.917 82.3418 111.917 73.9274 111.917C73.9274 115.845 73.9274 119.628 73.9274 123.508C49.3149 123.508 24.7993 123.508 0.210938 123.508C0.210938 87.3769 0.210938 51.2704 0.210938 15.0183C8.52829 15.0183 16.8214 15.0183 25.2843 15.0183C25.2843 11.0173 25.2843 7.16172 25.2843 3.30615C49.8726 3.30615 74.4609 3.30615 99.0493 3.30615ZM40.9005 63.4433C41.434 63.4433 41.8705 63.4433 42.3069 63.4433C47.9327 63.4433 53.5827 63.4433 59.2084 63.4191C59.6934 63.4191 60.2511 63.3706 60.6391 63.1038C62.482 61.9156 64.4946 61.4306 66.6528 61.5034C67.6955 61.5276 68.7382 61.5034 69.8536 61.5034C69.8536 47.2208 69.8536 33.0837 69.8536 18.7527C57.5837 18.7527 45.3623 18.7527 33.1651 18.7527C33.1651 17.3947 33.1651 16.2065 33.1651 14.9941C46.7445 14.9941 60.2268 14.9941 73.8547 14.9941C73.8547 25.6636 73.8547 36.2603 73.8547 46.8571C74.1457 46.5419 74.2427 46.2266 74.3397 45.8871C75.9159 40.0432 77.4678 34.1749 79.0682 28.331C80.4504 23.2872 85.7609 21.0563 90.2227 23.6267C93.181 25.3241 94.3207 28.525 93.3023 32.2835C90.8046 41.5708 88.2828 50.8582 85.7851 60.1212C85.6881 60.5092 85.6154 60.9214 85.4942 61.4549C89.4467 61.2852 92.0171 64.001 95.0967 65.7227C95.0967 46.1054 95.0967 26.6578 95.0967 7.18597C73.1272 7.18597 51.2063 7.18597 29.1641 7.18597C29.1641 11.0658 29.1641 14.8729 29.1641 18.8012C20.7012 18.8012 12.3839 18.8012 4.09075 18.8012C4.09075 52.4586 4.09075 85.9705 4.09075 119.531C26.0602 119.531 47.9084 119.531 69.8536 119.531C69.8536 114.317 69.8536 109.177 69.8536 104.109C67.5742 103.381 68.035 105.442 67.4045 106.461C66.1921 106.146 65.0039 105.855 63.7672 105.539C63.9127 104.957 63.9854 104.497 64.1309 104.06C64.3492 103.43 64.2279 102.993 63.6459 102.557C61.0998 100.617 60.2996 98.0464 61.0756 94.9668C61.2695 94.1666 61.4878 93.3906 61.7303 92.4449C59.7419 92.4449 57.8747 92.4449 56.0075 92.4449C52.8067 92.4449 51.5943 91.475 50.9638 88.3954C50.5516 88.4439 50.1393 88.4924 49.7271 88.5166C46.6475 88.6621 44.0529 86.6737 43.4466 83.6426C43.0102 81.3875 43.8104 79.496 45.4108 77.8956C46.308 76.9984 47.181 76.1255 48.0782 75.2282C48.0297 75.1313 47.9812 75.0343 47.9327 74.9373C45.6048 74.9373 43.2769 74.9373 40.949 74.9373C40.949 73.5793 40.949 72.3669 40.949 71.0817C44.4651 71.0817 47.8599 71.0817 51.2548 71.0817C51.6428 71.0817 52.1277 71.1059 52.3702 70.8877C53.6069 69.8208 54.7466 68.7053 55.9348 67.5899C55.8621 67.4444 55.7893 67.3231 55.6923 67.1776C50.7698 67.1776 45.823 67.1776 40.8763 67.1776C40.9005 65.9409 40.9005 64.777 40.9005 63.4433ZM77.2738 93.0996C76.1098 96.1065 74.7519 98.8709 74.0002 101.781C73.5152 103.745 73.9032 105.927 73.9032 108.013C81.0809 108.013 88.0888 108.013 95.1209 108.013C95.1209 104.084 95.1209 100.253 95.1209 96.2035C88.7192 97.1735 82.9723 94.7728 77.2738 93.0996ZM77.6618 48.6515C74.9216 58.7875 72.2058 68.8266 69.4657 78.9626C71.6966 78.9626 73.7092 78.9383 75.7461 78.9868C76.5221 79.0111 76.7888 78.7201 76.9828 77.9926C78.4377 72.4881 79.9412 66.9836 81.4203 61.4791C82.366 57.9873 83.3118 54.4955 84.306 50.8824C82.1236 50.1307 79.9654 49.4275 77.6618 48.6515ZM69.1019 65.4802C65.8283 65.068 63.161 65.5772 60.8573 68.0263C56.8805 72.2699 52.6612 76.2952 48.5389 80.4175C48.1994 80.757 47.7387 81.0722 47.6417 81.4845C47.4962 82.1877 47.3265 83.0849 47.6417 83.6668C47.9327 84.2003 48.8056 84.7095 49.4119 84.7095C50.0908 84.6853 50.8668 84.1761 51.4003 83.6668C54.4556 80.6842 57.4625 77.6774 60.4451 74.6463C62.191 72.8761 64.2037 71.6152 66.7498 71.3484C67.0408 71.3242 67.5257 71.1302 67.5985 70.9119C68.132 69.1175 68.5927 67.3231 69.1019 65.4802ZM80.7656 37.206C83.045 37.9578 85.2032 38.661 87.4341 39.4127C88.21 36.4786 88.9617 33.7385 89.6892 30.9741C90.2227 28.9129 89.4225 27.3125 87.6038 26.7548C85.5426 26.1243 83.627 26.9973 82.9965 29.0099C82.1963 31.6531 81.5416 34.3447 80.7656 37.206ZM73.0787 92.5662C71.6966 92.5662 70.5084 92.5419 69.2959 92.5662C68.132 92.5904 66.6043 92.2267 65.9011 92.8087C65.1251 93.4634 65.1009 94.9911 64.8099 96.155C64.3734 97.9737 65.2221 99.5499 66.8468 100.108C68.7139 100.738 70.7508 100.035 71.3571 98.3131C72.0603 96.4945 72.4968 94.6031 73.0787 92.5662ZM85.3487 47.1238C85.7124 45.7174 86.0761 44.4322 86.4156 43.1713C84.0877 42.3953 82.0023 41.7163 79.7714 40.9646C79.4077 42.3468 79.0682 43.5835 78.7287 44.9172C80.9596 45.6446 83.045 46.3479 85.3487 47.1238ZM80.7899 78.8656C82.9723 79.0596 83.9665 78.5018 84.0392 77.1439C84.112 75.883 83.2875 75.1555 81.7841 75.2282C81.4688 76.3922 81.1294 77.5804 80.7899 78.8656ZM65.4646 78.8898C65.7556 77.7744 66.0708 76.6347 66.3861 75.495C66.2648 75.398 66.1436 75.2767 65.9981 75.1797C64.5916 76.3194 63.161 77.4591 61.7545 78.5988C61.803 78.6958 61.8758 78.7928 61.9243 78.8656C63.0397 78.8898 64.1552 78.8898 65.4646 78.8898Z" fill="#1F1646"/>
<path id="Vector_2" d="M7.92188 42.0315C7.92188 35.6056 7.92188 29.2524 7.92188 22.8264C24.7021 22.8264 41.458 22.8264 58.2867 22.8264C58.2867 29.2281 58.2867 35.6056 58.2867 42.0315C41.5065 42.0315 24.7748 42.0315 7.92188 42.0315ZM11.8744 38.1759C26.0843 38.1759 40.2213 38.1759 54.3584 38.1759C54.3584 34.2961 54.3584 30.4891 54.3584 26.682C40.1486 26.682 26.0115 26.682 11.8744 26.682C11.8744 30.5376 11.8744 34.3204 11.8744 38.1759Z" fill="#1F1646"/>
<path id="Vector_3" d="M27.3506 73.0459C27.3506 70.4513 27.3506 67.9779 27.3506 65.4318C28.66 65.4318 29.8482 65.4318 31.1092 65.4318C31.1092 69.3116 31.1092 73.1187 31.1092 76.9742C23.398 76.9742 15.7354 76.9742 8 76.9742C8 69.2873 8 61.6005 8 53.8408C13.0923 53.8408 18.1845 53.8408 23.3495 53.8408C23.3495 55.0775 23.3495 56.2657 23.3495 57.5751C19.5425 57.5751 15.7596 57.5751 11.9041 57.5751C11.9041 62.7886 11.9041 67.8809 11.9041 73.0459C16.9963 73.0459 22.0643 73.0459 27.3506 73.0459Z" fill="#1F1646"/>
<path id="Vector_4" d="M11.8494 90.5778C11.8494 95.8398 11.8494 100.908 11.8494 106.073C16.9659 106.073 22.0339 106.073 27.2716 106.073C27.2716 103.551 27.2716 101.053 27.2716 98.4587C28.6296 98.4587 29.8178 98.4587 31.0787 98.4587C31.0787 102.266 31.0787 106.049 31.0787 109.904C23.3918 109.904 15.7049 109.904 7.94531 109.904C7.94531 102.217 7.94531 94.5304 7.94531 86.7708C13.0618 86.7708 18.1298 86.7708 23.2948 86.7708C23.2948 87.9832 23.2948 89.2199 23.2948 90.5536C19.5605 90.5778 15.7777 90.5778 11.8494 90.5778Z" fill="#1F1646"/>
<path id="Vector_5" d="M19.4451 102.775C17.869 101.199 16.1715 99.5014 14.5469 97.8767C15.3713 97.0522 16.2685 96.2035 17.2142 95.2578C17.8205 95.961 18.5722 96.8097 19.3239 97.6585C25.5074 91.4992 31.4726 85.534 37.3893 79.6173C38.335 80.6115 39.1837 81.5087 39.9597 82.2847C33.1942 89.0016 26.3318 95.8883 19.4451 102.775Z" fill="#1F1646"/>
<path id="Vector_6" d="M37.5105 46.5903C38.5047 47.5603 39.3535 48.409 40.1537 49.1607C33.2427 56.0716 26.3803 62.9341 19.5664 69.748C17.966 68.1476 16.2685 66.4501 14.5469 64.7042C15.3228 63.9768 16.22 63.128 17.2385 62.1581C17.869 62.9341 18.5964 63.807 19.3481 64.7042C25.5316 58.545 31.4968 52.5798 37.5105 46.5903Z" fill="#1F1646"/>
<path id="Vector_7" d="M40.9219 59.4665C40.9219 58.1813 40.9219 56.9931 40.9219 55.7322C49.312 55.7322 57.6051 55.7322 66.0194 55.7322C66.0194 56.9446 66.0194 58.1571 66.0194 59.4665C57.6778 59.4665 49.3847 59.4665 40.9219 59.4665Z" fill="#1F1646"/>
<path id="Vector_8" d="M58.2872 110.074C58.2872 111.335 58.2872 112.523 58.2872 113.808C51.2308 113.808 44.2229 113.808 37.0938 113.808C37.0938 112.62 37.0938 111.383 37.0938 110.074C44.1017 110.074 51.1338 110.074 58.2872 110.074Z" fill="#1F1646"/>
<path id="Vector_9" d="M66.0484 110.05C66.0484 111.311 66.0484 112.499 66.0484 113.808C64.8118 113.808 63.5751 113.808 62.2656 113.808C62.2656 112.571 62.2656 111.359 62.2656 110.05C63.5266 110.05 64.7148 110.05 66.0484 110.05Z" fill="#1F1646"/>
<path id="Vector_10" d="M15.7344 30.5619C17.0196 30.5619 18.2078 30.5619 19.4929 30.5619C19.4929 31.8228 19.4929 33.011 19.4929 34.272C18.232 34.272 16.9953 34.272 15.7344 34.272C15.7344 32.9868 15.7344 31.7743 15.7344 30.5619Z" fill="#1F1646"/>
<path id="Vector_11" d="M23.5156 30.5619C24.8008 30.5619 26.0133 30.5619 27.2742 30.5619C27.2742 31.8228 27.2742 33.011 27.2742 34.272C26.0133 34.272 24.8251 34.272 23.5156 34.272C23.5156 33.0595 23.5156 31.8471 23.5156 30.5619Z" fill="#1F1646"/>
<path id="Vector_12" d="M35.0016 34.272C33.6679 34.272 32.4797 34.272 31.2188 34.272C31.2188 33.0353 31.2188 31.8471 31.2188 30.5619C32.4797 30.5619 33.7164 30.5619 35.0016 30.5619C35.0016 31.7986 35.0016 33.011 35.0016 34.272Z" fill="#1F1646"/>
<path id="Vector_13" d="M38.9609 34.2476C38.9609 33.0109 38.9609 31.847 38.9609 30.5861C40.2219 30.5861 41.4343 30.5861 42.7438 30.5861C42.7438 31.7743 42.7438 32.9624 42.7438 34.2476C41.5313 34.2476 40.3189 34.2476 38.9609 34.2476Z" fill="#1F1646"/>
<path id="Vector_14" d="M50.5328 34.272C49.2476 34.272 48.0109 34.272 46.75 34.272C46.75 33.011 46.75 31.8228 46.75 30.5619C48.0352 30.5619 49.2476 30.5619 50.5328 30.5619C50.5328 31.8228 50.5328 33.011 50.5328 34.272Z" fill="#1F1646"/>
</g>
</g>
</g>
</svg>
