<svg width="138" height="150" viewBox="0 0 138 150" fill="none" xmlns="http://www.w3.org/2000/svg">
<circle cx="69.0025" cy="81.1225" r="68.8775" fill="#F7FCFF"/>
<path d="M101.084 89.8024C101.85 90.4912 102.692 91.18 103.457 91.9453C105.217 93.782 106.212 96.0779 106.212 98.68C106.212 107.481 106.212 116.282 106.212 125.083C106.212 125.236 106.212 125.389 106.135 125.619C91.4416 125.619 76.7477 125.619 61.9008 125.619C61.9008 124.318 61.9008 123.093 61.9008 121.792C60.5232 121.792 59.2222 121.792 57.9977 121.792C57.0793 124.93 56.0079 125.695 52.7171 125.695C40.6253 125.695 28.4569 125.695 16.3651 125.695C9.7069 125.695 5.49771 121.486 5.49771 114.828C5.49771 107.94 5.65077 101.052 5.49771 94.1647C5.03853 78.2463 16.5181 68.1443 27.6151 65.0065C31.212 64.0116 34.8855 62.9402 38.5589 62.0218C39.7069 61.7157 40.2426 61.333 40.3957 60.1086C40.6253 58.3484 41.161 56.5882 41.3906 54.8279C41.4671 54.4453 41.2375 53.7565 40.9314 53.5269C38.3294 51.4606 36.3396 48.8586 35.0385 45.7973C34.8855 45.4147 34.3498 44.9555 33.9671 44.8024C31.212 43.9606 29.0691 42.3535 27.6151 39.8279C26.314 37.532 24.9365 35.2361 23.712 32.9402C20.6508 27.2004 21.0334 21.6137 24.7834 16.3331C27.1559 12.9657 29.7579 9.75142 32.36 6.61366C36.8753 1.02693 44.3753 -0.733276 51.0334 2.09836C51.5691 2.32795 52.3344 2.32795 52.8702 2.09836C59.5283 -0.733276 66.9518 1.02693 71.5436 6.61366C74.1457 9.75142 76.6712 12.9657 79.0436 16.2565C82.8702 21.5371 83.2528 27.1239 80.1916 32.9402C78.9671 35.2361 77.5895 37.532 76.2885 39.8279C74.8344 42.3535 72.6916 43.9606 69.9365 44.8024C69.4773 44.9555 69.0181 45.3382 68.8651 45.7973C67.5641 48.8586 65.6508 51.4606 62.9722 53.5269C62.6661 53.7565 62.4365 54.4453 62.513 54.8279C62.8191 56.7412 63.3548 58.6545 63.5844 60.6443C63.7375 61.8688 64.7324 61.7157 65.4977 62.0984C66.263 62.4045 66.5691 61.9453 67.0283 61.4861C72.9212 54.5984 80.3446 51.7667 89.2222 53.8331C97.9467 55.8228 103.533 61.4861 105.753 70.1341C107.436 76.7157 106.059 82.8382 102.156 88.4249C101.926 88.731 101.697 89.0371 101.467 89.3433C101.238 89.4198 101.161 89.4198 101.084 89.8024ZM25.6253 101.588C30.9824 101.588 36.1865 101.588 41.3906 101.588C41.6967 101.588 42.1559 101.129 42.2324 100.823C43.4569 94.1647 44.6814 87.583 45.8294 80.9249C45.9059 80.5422 45.6763 80.0065 45.4467 79.6239C45.1406 79.0882 44.6814 78.629 44.2987 78.0933C43.1508 78.9351 42.0794 79.7769 40.9314 80.6188C39.0947 76.4096 37.411 72.3535 35.7273 68.2973C35.3447 67.379 34.962 67.2259 34.0436 67.532C32.2069 68.1443 30.2171 68.6035 28.3804 69.1392C19.5793 71.6647 9.17119 80.0065 9.55385 94.2412C9.78344 101.205 9.55385 108.17 9.55385 115.134C9.55385 119.343 12.0028 121.792 16.212 121.792C28.3038 121.792 40.4722 121.792 52.564 121.792C52.9467 121.792 53.4059 121.792 53.7885 121.716C53.7885 116.282 53.7885 111.001 53.7885 105.568C41.6967 105.568 29.6814 105.568 17.7426 105.568C17.7426 104.19 17.7426 102.966 17.7426 101.588C19.1202 101.588 20.3447 101.588 21.7222 101.588C21.7222 98.2208 21.7222 94.93 21.7222 91.6392C23.0998 91.6392 24.3242 91.6392 25.7018 91.6392C25.6253 94.93 25.6253 98.1443 25.6253 101.588ZM65.8804 75.3382C65.8804 85.2871 73.9926 93.4759 83.8651 93.4759C93.8906 93.5524 102.079 85.3637 102.079 75.4147C102.079 65.4657 93.9671 57.2769 84.0947 57.2769C74.0691 57.2004 65.9569 65.3126 65.8804 75.3382ZM66.0334 35.7718C65.8804 33.0167 65.8038 30.9504 65.6508 28.8075C65.4977 27.5065 64.8855 26.7412 63.3549 26.9708C62.513 27.1239 61.6712 26.9708 60.8294 26.9708C56.2375 27.1239 52.411 25.5167 49.2732 22.1494C49.0436 21.9198 48.3549 21.7667 48.0487 21.9198C45.7528 22.8382 43.4569 23.7565 41.2375 24.8279C38.9416 25.8994 37.7171 27.8126 37.7171 30.3382C37.6406 33.3994 37.6406 36.4606 37.7171 39.5218C37.8702 46.5626 43.3038 52.379 50.4212 53.1443C57.1559 53.9096 63.814 49.3177 65.3447 42.583C65.9569 40.2106 65.8804 37.6086 66.0334 35.7718ZM33.2783 40.5167C33.4314 40.4402 33.5079 40.3637 33.661 40.2871C33.661 37.3024 33.661 34.2412 33.661 31.2565C33.5845 26.2055 35.8804 22.7616 40.5487 20.7718C42.6151 19.93 44.6814 19.0116 46.8242 18.0933C46.5181 17.2514 46.212 16.5626 45.9824 15.7208C47.2834 15.1851 48.4314 14.7259 49.6559 14.2667C50.0385 15.1086 50.2681 15.8739 50.5742 16.6392C52.0283 20.1596 54.6304 22.4555 58.4569 22.9147C61.1355 23.2208 63.814 23.1443 66.4926 22.9912C68.4059 22.9147 69.9365 21.0779 69.9365 19.0882C69.9365 17.1749 68.5589 15.4147 66.6457 15.032C64.8089 14.6494 62.8957 15.7208 62.2069 17.5575C62.0538 18.0167 61.9008 18.4759 61.8242 18.9351C60.5232 18.9351 59.2222 18.9351 57.9212 18.9351C58.0742 16.3331 58.9926 14.1902 61.0589 12.6596C64.0436 10.3637 67.2579 10.4402 70.4722 12.2004C69.8599 11.282 69.2477 10.4402 68.5589 9.59836C64.8855 5.00652 58.9926 3.55244 53.7885 6.23101C52.3344 6.99632 51.1865 6.91979 49.8089 6.23101C44.6814 3.7055 38.8651 4.92999 35.4212 9.29223C32.8957 12.43 30.3702 15.6443 27.9212 18.9351C25.0896 22.7616 24.86 26.8943 27.1559 31.1035C28.3804 33.3994 29.6814 35.6953 31.0589 37.9912C31.6712 38.9096 32.513 39.6749 33.2783 40.5167ZM98.0232 101.588C98.0232 107.022 98.0232 112.302 98.0232 117.66C97.4875 117.66 97.0283 117.66 96.5691 117.66C88.8395 117.66 81.11 117.66 73.3804 117.66C72.3855 117.66 71.7732 117.966 71.0079 118.578C69.7834 119.649 68.3294 120.338 66.9518 121.18C66.7222 121.333 66.4161 121.41 65.9569 121.639C78.2018 121.639 90.1406 121.639 102.156 121.639C102.156 121.103 102.156 120.644 102.156 120.262C102.156 113.527 102.003 106.869 102.232 100.134C102.309 96.6902 100.625 94.4708 98.2528 92.5575C88.763 99.2922 79.3498 99.2922 69.9365 92.5575C66.6457 94.7769 65.4212 97.8381 66.11 101.741C66.9518 102.047 67.8702 102.43 68.8651 102.813C68.9416 102.353 68.9416 102.047 69.0181 101.665C78.661 101.588 88.3038 101.588 98.0232 101.588ZM74.2222 113.527C80.5743 113.527 87.3089 113.527 94.0436 113.527C94.0436 110.848 94.0436 108.246 94.0436 105.644C86.9263 105.644 79.962 105.644 72.9212 105.644C73.3038 108.323 73.763 110.925 74.2222 113.527ZM57.462 101.512C56.2375 94.7769 55.013 88.1188 53.7885 81.4606C52.411 81.4606 51.1865 81.4606 49.8089 81.4606C48.5844 88.1188 47.36 94.7769 46.1355 101.512C49.962 101.512 53.6355 101.512 57.462 101.512ZM57.8446 117.66C60.1406 117.66 62.2834 117.736 64.5028 117.66C67.3344 117.507 69.5538 115.134 69.86 112.379C70.1661 109.624 68.4824 106.639 65.8038 106.027C63.2018 105.491 60.5232 105.644 57.8446 105.491C57.8446 109.7 57.8446 113.603 57.8446 117.66ZM45.2936 56.0524C44.911 57.9657 44.6049 59.7259 44.2222 61.4861C44.0691 62.1749 44.2222 62.481 44.7579 62.7871C46.9008 64.0116 48.9671 65.3126 51.11 66.5371C51.4926 66.7667 52.1049 66.7667 52.411 66.6137C54.6304 65.3892 56.8497 64.0116 58.9926 62.7106C59.2222 62.5575 59.5283 62.1749 59.5283 62.0218C59.1457 60.032 58.763 58.1188 58.3038 56.129C53.9416 57.6596 49.6559 57.6596 45.2936 56.0524ZM70.013 40.2871C70.0896 40.3637 70.2426 40.4402 70.3191 40.5167C71.0845 39.5984 72.0028 38.8331 72.6151 37.8382C73.8396 36.0014 74.7579 33.9351 75.9824 32.0984C79.4263 26.5116 78.3549 21.0014 73.4569 16.18C74.7579 20.7718 73.2273 24.1392 69.1712 26.4351C70.6253 31.0269 69.5538 35.6953 70.013 40.2871ZM59.2987 78.0167C59.0692 78.3994 58.9161 78.782 58.61 78.9351C57.462 79.7769 57.6916 80.8484 57.9212 81.9198C58.9161 87.2004 59.8345 92.5575 60.8294 97.8382C61.0589 99.0626 61.2885 100.211 61.5181 101.435C61.6712 101.435 61.8243 101.512 61.9773 101.512C61.2885 96.5371 63.0487 92.5575 66.7222 89.8024C65.4212 87.2769 63.9671 85.0575 63.2018 82.532C62.513 80.3892 61.0589 79.3177 59.2987 78.0167ZM42.5385 74.1902C44.5283 72.5831 46.3651 71.129 48.2783 69.5984C46.3651 68.4504 44.6048 67.4555 42.9212 66.3075C41.6202 65.3892 40.4722 65.4657 39.1712 66.231C40.2426 68.8331 41.3906 71.4351 42.5385 74.1902ZM55.3191 69.5984C57.3089 71.2055 59.1457 72.6596 61.1355 74.2667C62.0538 71.4351 62.9722 68.7565 63.9671 65.7718C63.1253 65.7718 62.2834 65.5422 61.7477 65.8484C59.6814 66.9198 57.6151 68.2208 55.3191 69.5984ZM51.7987 77.4045C52.564 77.4045 53.4059 77.5575 54.0181 77.3279C54.7069 77.0984 55.3191 76.4861 55.7018 75.8739C55.8549 75.6443 55.3191 74.879 54.9365 74.4198C54.4773 73.9606 53.9416 73.5779 53.4059 73.1188C51.8753 71.8943 51.8753 71.8943 50.3447 73.0422C49.8089 73.4249 49.2732 73.8841 48.7375 74.2667C48.2783 74.6494 47.36 75.032 47.8957 75.7973C48.2783 76.4096 48.9671 76.9453 49.6559 77.1749C50.2681 77.5575 51.0334 77.4045 51.7987 77.4045Z" fill="#1F1646"/>
<path d="M89.9809 73.3483C88.6033 73.3483 87.3788 73.3483 86.3839 73.3483C85.9248 72.0473 85.8482 70.6698 85.0829 69.9045C84.5472 69.2922 83.1696 69.4453 81.9451 69.2157C81.9451 70.2106 81.8686 71.0524 81.9451 71.8177C82.0982 72.8891 82.9401 73.4249 84.0115 73.5014C87.7615 73.8075 89.9044 76.2565 89.9044 79.93C89.9044 81.7667 89.9044 83.5269 89.9044 85.4402C88.6033 85.4402 87.3023 85.4402 85.9247 85.4402C85.9247 86.8177 85.9247 88.1187 85.9247 89.4963C84.5472 89.4963 83.3227 89.4963 81.8686 89.4963C81.8686 88.4249 81.8686 87.2004 81.8686 86.0524C81.8686 85.6698 81.7156 85.134 81.486 84.981C78.4248 83.4504 77.5829 80.8483 77.889 77.5575C79.1135 77.5575 80.4146 77.5575 81.486 77.5575C81.9452 78.782 82.0217 80.1596 82.787 81.0014C83.3227 81.6136 84.7003 81.4606 85.8482 81.6902C85.8482 80.7718 85.8482 80.1596 85.8482 79.5473C85.7717 78.2463 85.0829 77.5575 83.7819 77.481C79.9554 77.0983 77.8125 74.8024 77.8125 70.9759C77.8125 69.2157 77.8125 67.3789 77.8125 65.4657C79.1901 65.4657 80.4146 65.4657 81.7921 65.4657C81.7921 64.0881 81.7921 62.8636 81.7921 61.4861C83.1697 61.4861 84.3941 61.4861 85.8482 61.4861C85.8482 62.634 85.8482 63.782 85.8482 64.93C85.8482 65.3126 86.0013 65.7718 86.3074 65.9249C89.5217 67.4555 90.3635 70.0575 89.9809 73.3483Z" fill="#1F1646"/>
</svg>
