<svg width="134" height="150" viewBox="0 0 134 150" fill="none" xmlns="http://www.w3.org/2000/svg">
<circle cx="66.9968" cy="83.8236" r="66.1765" fill="#F7FCFF"/>
<path d="M8.11443 132.077C7.59972 131.857 7.08502 131.636 6.64384 131.415C3.92325 130.018 2.82031 127.739 2.82031 124.798C2.82031 95.9007 2.82031 67.0037 2.82031 38.1066C2.82031 33.4007 5.5409 30.7537 10.2468 30.7537C21.1291 30.7537 32.0115 30.7537 42.8938 30.7537C43.335 30.7537 43.8497 30.8272 44.2909 30.9007C45.4674 31.1213 45.9085 31.9301 45.9821 33.0331C46.0556 34.0625 45.1733 34.9448 44.0703 35.0919C43.5556 35.1654 43.0409 35.1654 42.5262 35.1654C31.938 35.1654 21.2762 35.1654 10.688 35.1654C7.82031 35.1654 7.23208 35.7537 7.23208 38.6213C7.23208 41.8566 7.23208 45.0919 7.23208 48.4742C7.89384 48.4742 8.33502 48.4742 8.84972 48.4742C19.585 48.4742 30.2468 48.4742 40.9821 48.4742C41.3497 48.4742 41.6438 48.4742 42.0115 48.4742C43.7762 48.4742 44.8056 49.2831 44.7321 50.6801C44.7321 52.0037 43.7027 52.886 41.938 52.886C30.9085 52.886 19.9527 52.886 8.92325 52.886C8.40855 52.886 7.89384 52.886 7.30561 52.886C7.30561 53.4742 7.23208 53.9154 7.23208 54.3566C7.23208 77.6654 7.23208 101.048 7.23208 124.357C7.23208 127.077 7.89384 127.665 10.5409 127.665C47.9674 127.665 85.3203 127.665 122.747 127.665C125.467 127.665 126.056 127.077 126.056 124.357C126.056 101.048 126.056 77.6654 126.056 54.3566C126.056 53.9154 126.056 53.4742 126.056 52.886C125.467 52.886 124.953 52.886 124.511 52.886C113.629 52.886 102.747 52.886 91.8644 52.886C91.2027 52.886 90.5409 52.886 89.9527 52.6654C88.9968 52.3713 88.4821 51.5625 88.5556 50.6066C88.6291 49.5772 89.2174 48.8419 90.2468 48.6213C90.7615 48.4743 91.3497 48.5478 91.938 48.5478C102.747 48.5478 113.482 48.5478 124.291 48.5478C124.806 48.5478 125.32 48.5478 125.909 48.5478C125.982 48.0331 125.982 47.5919 125.982 47.2243C125.982 44.2831 125.982 41.3419 125.982 38.4743C125.982 36.0478 125.32 35.3125 122.82 35.3125C112.085 35.3125 101.423 35.3125 90.688 35.3125C90.0997 35.3125 89.585 35.3125 88.9968 35.239C87.8203 35.0919 87.2321 34.2831 87.2321 33.1801C87.2321 32.1507 87.7468 31.3419 88.7762 31.1213C89.2909 30.9743 89.8791 30.9742 90.4674 30.9742C101.276 30.9742 112.011 30.9742 122.82 30.9742C127.673 30.9742 130.32 33.6213 130.32 38.4743C130.32 67.2978 130.32 96.0478 130.32 124.871C130.32 128.695 128.482 131.048 125.026 132.298C86.2027 132.077 47.1585 132.077 8.11443 132.077Z" fill="#1F1646"/>
<path d="M79.5882 81.636C79.0735 82.9596 78.4852 84.2096 78.044 85.5331C77.5293 87.0772 76.794 88.3272 74.5882 87.9596C75.4705 89.7978 76.2793 91.3419 77.0146 92.9596C78.2646 95.4596 77.3823 96.8566 74.5882 96.8566C69.294 96.8566 63.9264 96.8566 58.6323 96.8566C55.8382 96.8566 54.9558 95.4596 56.2058 92.9596C57.0146 91.4154 57.7499 89.7978 58.6323 88.0331C56.2793 88.4007 55.6176 86.8566 55.0293 85.1654C54.6617 83.989 54.147 82.886 53.7058 81.5625C49.9558 84.136 46.2793 86.5625 42.6764 88.989C42.3087 89.2831 41.8676 89.5037 41.4999 89.7978C40.1764 90.6066 38.8529 90.3125 38.2646 88.9154C36.647 85.1654 35.1029 81.4154 33.7793 77.5919C33.5587 76.9301 34.0734 75.8272 34.5146 75.1654C38.5587 69.5037 42.7499 63.8419 46.794 58.1066C47.1617 57.5184 47.3823 56.7096 47.3087 56.0478C45.0293 35.9743 50.2499 18.1066 63.3382 2.66544C63.8529 2.07721 64.294 1.5625 64.7352 1.04779C65.9852 -0.349265 67.3823 -0.349265 68.5587 1.04779C73.9999 7.22426 78.4852 14.0625 81.5735 21.7831C86.0587 32.886 87.1617 44.3566 85.8382 56.1949C85.7646 56.7831 85.9852 57.5919 86.3529 58.0331C90.397 63.6949 94.5146 69.3566 98.6323 74.9449C99.5146 76.1949 99.8087 77.2978 99.147 78.7684C97.7499 81.9302 96.5734 85.1654 95.2499 88.3272C94.3676 90.4596 93.1176 90.8272 91.2058 89.5772C87.6029 87.1507 84.0734 84.7978 80.544 82.3713C80.3234 82.0772 80.0293 81.9301 79.5882 81.636ZM66.647 5.60662C56.2793 17.9596 51.0587 32.0037 51.2058 48.0331C51.3529 60.1654 54.6617 71.7096 58.9264 82.9596C59.0735 83.3272 59.6617 83.6213 60.0293 83.6213C64.3676 83.6949 68.7058 83.6213 73.044 83.6949C73.7793 83.6949 74.0735 83.4743 74.3676 82.8125C77.5293 74.2831 80.2499 65.6066 81.3529 56.489C82.9705 43.989 81.4999 31.9301 76.1323 20.386C73.7793 15.0184 70.544 10.1654 66.647 5.60662ZM41.2793 84.7243C45.0293 82.2243 48.6323 79.7978 52.1617 77.3713C50.9117 72.6654 49.6617 68.1802 48.4117 63.4743C45.1029 67.9596 41.8676 72.4449 38.6323 76.9302C38.4852 77.1507 38.4852 77.5184 38.5587 77.739C39.4411 80.0919 40.3234 82.2978 41.2793 84.7243ZM92.0882 84.6507C92.9705 82.4449 93.7793 80.386 94.6617 78.3272C94.9558 77.5919 94.8823 77.0772 94.4411 76.489C91.4264 72.4449 88.4852 68.4007 85.544 64.2831C85.3235 64.0625 85.1029 63.7684 84.9558 63.6213C83.7058 68.2537 82.4558 72.739 81.2058 77.3713C84.5882 79.6507 87.9705 81.9301 91.3529 84.2096C91.4999 84.2831 91.7205 84.4302 92.0882 84.6507ZM71.7205 92.3713C70.1764 88.0331 70.1764 88.0331 65.8382 88.0331C65.2499 88.0331 64.7352 88.0331 64.147 88.0331C63.9264 88.0331 63.5587 88.1802 63.4117 88.4007C62.7499 89.6507 62.0882 90.9743 61.4264 92.3713C64.9558 92.3713 68.3382 92.3713 71.7205 92.3713Z" fill="#1F1646"/>
<path d="M64.5083 111.048C64.5083 109.945 64.4347 108.915 64.5083 107.813C64.5818 106.489 65.4642 105.68 66.6406 105.68C67.8906 105.68 68.773 106.489 68.8465 107.886C68.92 110.092 68.92 112.298 68.8465 114.43C68.773 115.754 67.8906 116.563 66.7142 116.563C65.4642 116.563 64.6553 115.754 64.5083 114.357C64.5083 114.21 64.5083 114.136 64.5083 113.989C64.4347 113.033 64.4347 112.077 64.5083 111.048Z" fill="#1F1646"/>
<path d="M60.0313 106.857C60.0313 107.96 60.1048 108.989 60.0313 110.092C59.9577 111.415 59.1489 112.224 57.8989 112.224C56.796 112.224 55.7665 111.563 55.7665 110.313C55.6195 107.96 55.6195 105.607 55.7665 103.254C55.8401 102.004 56.796 101.342 57.9724 101.342C59.1489 101.415 59.9577 102.151 60.0313 103.548C60.0313 103.621 60.0313 103.695 60.0313 103.768C60.0313 104.798 60.0313 105.827 60.0313 106.857Z" fill="#1F1646"/>
<path d="M73.3296 106.71C73.3296 105.607 73.256 104.504 73.3296 103.327C73.4031 102.077 74.2119 101.342 75.3884 101.268C76.5648 101.195 77.5207 101.93 77.5943 103.18C77.7413 105.533 77.7413 107.886 77.5943 110.239C77.5207 111.489 76.5649 112.224 75.4619 112.151C74.2854 112.151 73.4766 111.342 73.3296 110.018C73.3296 109.945 73.3296 109.871 73.3296 109.798C73.3296 108.768 73.3296 107.739 73.3296 106.71Z" fill="#1F1646"/>
<path d="M13.8465 39.7242C15.023 39.7242 15.9789 40.6066 15.9789 41.7831C15.9789 42.9595 15.023 43.989 13.773 43.989C12.523 43.989 11.6406 43.0331 11.6406 41.7831C11.7142 40.5331 12.5965 39.6507 13.8465 39.7242Z" fill="#1F1646"/>
<path d="M22.6011 43.989C21.3511 43.989 20.4688 42.9596 20.4688 41.7096C20.5423 40.5331 21.4246 39.6508 22.6746 39.6508C23.8511 39.6508 24.807 40.6066 24.807 41.7831C24.807 42.9596 23.7776 43.989 22.6011 43.989Z" fill="#1F1646"/>
<path d="M33.6316 41.7831C33.7051 42.886 32.7492 43.9154 31.5727 43.989C30.3963 44.0625 29.2933 43.1066 29.2933 41.9301C29.2198 40.7537 30.1022 39.7978 31.3522 39.7242C32.6022 39.6507 33.6316 40.5331 33.6316 41.7831Z" fill="#1F1646"/>
<path d="M66.7177 50.6066C60.6883 50.6066 55.7618 45.7537 55.6883 39.6507C55.6148 33.6949 60.6148 28.6949 66.6442 28.6213C72.6736 28.6213 77.6001 33.4743 77.6736 39.5772C77.7471 45.5331 72.7471 50.5331 66.7177 50.6066ZM66.5707 46.1949C70.2471 46.2684 73.2618 43.2537 73.2618 39.5772C73.2618 35.9743 70.3207 33.0331 66.7177 33.0331C63.1148 33.0331 60.1736 35.9008 60.1001 39.5772C60.0265 43.1066 62.9677 46.1213 66.5707 46.1949Z" fill="#1F1646"/>
</svg>
