<svg width="150" height="150" viewBox="0 0 150 150" fill="none" xmlns="http://www.w3.org/2000/svg">
<circle cx="75" cy="75" r="75" fill="#F7FCFF"/>
<path d="M118.046 56.6389C117.857 57.7118 117.731 58.7216 117.478 59.7314C116.721 62.6345 117.415 65.0959 119.498 67.2417C124.042 71.8488 124.042 78.2231 119.498 82.7672C117.352 84.913 116.658 87.3743 117.415 90.2775C119.056 96.5887 115.9 102.079 109.589 103.783C106.812 104.541 104.982 106.308 104.162 109.085C102.331 115.648 97.0931 118.678 90.5295 116.974C87.6895 116.28 85.2912 116.911 83.2085 118.993C78.4752 123.664 72.2271 123.6 67.4937 118.993C65.411 116.974 63.0128 116.28 60.1727 117.037C53.6722 118.678 48.3708 115.648 46.6037 109.211C45.8464 106.434 44.0792 104.604 41.2392 103.847C34.6756 101.953 31.7093 96.778 33.3503 90.1513C34.0445 87.3743 33.4134 84.9761 31.3938 82.9565C26.6604 78.16 26.6604 71.9751 31.3938 67.1786C33.4134 65.0959 34.0445 62.6345 33.3503 59.8576C31.7093 53.4833 34.8018 48.0557 41.113 46.2886C44.0161 45.4681 45.8464 43.701 46.6037 40.7979C48.3077 34.5498 53.7985 31.3942 60.0465 33.0351C62.9497 33.7925 65.411 33.1613 67.5568 31.0155C72.2271 26.4084 78.5383 26.4084 83.1454 31.0155C85.2281 33.0982 87.6895 33.7294 90.5926 33.0351C96.9669 31.3942 102.395 34.4867 104.099 40.7979C104.919 43.7641 106.812 45.5313 109.715 46.2886C114.701 47.6139 117.92 51.7162 118.046 56.6389ZM114.575 56.6389C114.512 53.2309 112.303 50.5171 108.706 49.5704C104.667 48.4344 102.079 45.9099 100.943 41.8708C99.6807 37.2636 96.0833 35.1809 91.4762 36.38C87.437 37.4529 83.9028 36.4432 80.9365 33.54C77.5285 30.1951 73.4262 30.1951 69.9551 33.54C66.9888 36.4432 63.5177 37.3898 59.4785 36.38C54.7451 35.1809 51.2109 37.2005 49.8855 41.9339C48.7495 45.9099 46.225 48.4975 42.1859 49.5704C37.5787 50.8326 35.496 54.43 36.6952 59.0372C37.7681 63.0763 36.8214 66.6106 33.8551 69.5768C30.5102 72.9849 30.5102 77.0871 33.8551 80.5583C36.7583 83.5245 37.705 86.9957 36.6952 91.0348C35.496 95.7682 37.5156 99.3025 42.249 100.628C46.1619 101.701 48.7495 104.288 49.8855 108.201C51.274 112.998 54.7451 115.017 59.5416 113.818C63.4546 112.808 66.9257 113.755 69.8288 116.532C73.5524 120.066 77.4023 120.066 81.1259 116.532C84.029 113.755 87.437 112.871 91.2868 113.818C96.2096 115.08 99.6176 113.061 101.006 108.201C102.142 104.288 104.667 101.764 108.516 100.691C113.313 99.3656 115.332 95.8313 114.133 91.0348C113.124 87.1219 113.944 83.5245 116.847 80.7476C120.255 77.5289 120.192 72.5431 116.847 69.3875C113.944 66.6737 113.187 63.1394 114.133 59.2265C114.26 58.3429 114.449 57.5225 114.575 56.6389Z" fill="#1F1646"/>
<path d="M37.8281 74.9413C38.0806 56.702 51.2709 41.1134 69.1947 38.1471C69.7627 38.0209 70.3938 37.9578 71.0249 37.8947C72.0978 37.8315 72.8551 38.3996 72.9814 39.3462C73.1076 40.356 72.4765 41.1765 71.4036 41.3027C67.9324 41.7445 64.6506 42.628 61.4319 44.0796C48.3678 49.8228 40.1001 64.0229 41.6148 78.2231C43.3188 94.1903 54.8683 106.308 70.7725 108.769C87.7495 111.357 104.663 99.7442 108.513 82.9564C112.868 63.7705 100.94 45.4681 81.6277 41.6814C80.9966 41.5551 80.3654 41.492 79.7343 41.3658C78.409 41.1765 77.7147 40.4191 77.841 39.4093C77.9672 38.3364 78.8508 37.7684 80.113 37.9578C85.7931 38.7151 91.1576 40.4822 95.8909 43.7641C107.567 51.7161 113.31 62.8869 112.805 77.0239C112.111 95.3895 97.2794 110.726 78.977 112.303C59.8541 114.007 42.6877 101.322 38.8379 82.6409C38.2699 80.1164 38.1437 77.5288 37.8281 74.9413Z" fill="#1F1646"/>
<path d="M70.0786 74.6889C70.3941 74.184 70.5835 73.8053 70.899 73.5529C76.2004 68.2515 81.5018 62.887 86.8663 57.5856C89.6432 54.8087 92.5464 54.8087 95.3233 57.5856C96.5855 58.8479 97.8477 60.1101 99.11 61.3723C101.382 63.7075 101.382 66.7999 99.11 69.072C94.5659 73.616 90.0219 78.16 85.4778 82.7041C84.7836 83.3983 84.0263 83.777 83.0796 83.209C82.0698 82.5779 82.0067 81.4419 82.8903 80.4952C83.9632 79.4223 85.0361 78.3494 86.109 77.2765C89.517 73.8684 92.925 70.4604 96.3331 67.0524C97.7215 65.6639 97.7215 64.8435 96.3331 63.5181C95.1339 62.319 93.9348 61.1199 92.7357 59.9208C91.5366 58.7216 90.5899 58.7216 89.3908 59.9208C83.5214 65.7901 77.652 71.6595 71.7195 77.592C70.2679 79.0436 69.5737 79.0436 68.1221 77.592C65.9763 75.4462 63.8936 73.3636 61.7478 71.2178C60.5487 70.0186 59.6651 70.0186 58.4029 71.2178C57.0144 72.6062 55.626 73.9947 54.2375 75.3831C53.1646 76.5191 53.1646 77.4027 54.2375 78.5387C58.1505 82.5148 62.1265 86.4277 66.1025 90.4037C68.1221 92.4233 70.9621 92.4233 73.0448 90.4037C74.3702 89.1415 75.6324 87.8161 76.8946 86.5539C77.7782 85.6703 78.788 85.6072 79.4822 86.3015C80.2396 86.9957 80.1765 88.0686 79.2929 88.889C77.9044 90.2775 76.516 91.7291 75.0644 93.0544C71.9088 96.0207 67.0492 96.0838 63.8936 93.0544C59.6651 88.9522 55.4998 84.7868 51.3975 80.5583C49.3779 78.4756 49.3779 75.3831 51.3975 73.2373C52.9753 71.5964 54.6162 69.9555 56.2571 68.3777C58.466 66.295 61.5585 66.295 63.7043 68.3777C65.8501 70.3973 67.8066 72.4169 70.0786 74.6889Z" fill="#1F1646"/>
</svg>
