<svg width="140" height="139" viewBox="0 0 140 139" fill="none" xmlns="http://www.w3.org/2000/svg">
<circle cx="70.0008" cy="69.921" r="69.0789" fill="#F7FCFF"/>
<path d="M128.19 66.5132C126.084 68.874 124.106 71.4262 121.809 73.5318C112.557 82.0818 101.902 88.1433 89.7146 91.3974C77.8468 94.5877 66.1065 94.0135 54.5576 89.9937C42.3707 85.7187 31.779 78.9553 22.9738 69.3844C22.5909 68.9378 22.2081 68.4911 21.8253 68.0445C20.4853 66.4494 20.4853 64.9818 21.8253 63.3229C24.7603 59.8774 28.0144 56.7509 31.5875 54.0072C40.2013 47.2438 49.7084 42.3308 60.364 39.7147C72.9337 36.5882 85.1844 37.6729 97.1799 42.3946C108.729 46.9248 118.746 53.6882 126.977 63.0677C127.488 63.6419 127.871 64.28 128.317 64.918C128.19 65.4285 128.19 65.9389 128.19 66.5132ZM95.9676 65.6837C95.9676 53.8158 86.3968 44.2449 74.5289 44.2449C62.7248 44.2449 53.1539 53.8158 53.0901 65.6199C53.0901 77.4878 62.661 87.1224 74.5289 87.1224C86.3329 87.1224 95.9676 77.5516 95.9676 65.6837ZM120.788 65.6837C113.897 58.6012 106.049 53.0501 96.9885 49.158C100.434 54.1348 102.284 59.5583 102.284 65.6199C102.284 71.6814 100.434 77.1687 96.9885 82.2094C106.049 78.3172 113.833 72.7023 120.788 65.6837ZM52.133 48.9666C42.945 53.0501 35.0969 58.6012 28.2058 65.6837C35.1607 72.7661 42.945 78.3172 52.133 82.337C44.923 71.171 44.923 60.1964 52.133 48.9666Z" fill="#1F1646"/>
<path d="M75.3612 11.9592C77.1478 12.7887 77.7858 14.1286 77.722 16.1066C77.5944 18.1484 77.722 20.254 77.722 22.2958C77.722 24.3376 76.3821 25.6775 74.5317 25.6775C72.7452 25.6775 71.469 24.2738 71.4052 22.2958C71.4052 20.254 71.469 18.1484 71.4052 16.1066C71.2776 14.1286 71.9795 12.7887 73.7661 11.9592C74.2127 11.9592 74.787 11.9592 75.3612 11.9592Z" fill="#1F1646"/>
<path d="M73.6332 119.408C71.8467 118.579 71.1448 117.175 71.2724 115.197C71.4 113.155 71.2724 111.177 71.2724 109.135C71.2724 107.094 72.6123 105.754 74.4627 105.754C76.2493 105.754 77.5254 107.158 77.5892 109.135C77.5892 111.177 77.5254 113.219 77.5892 115.197C77.7168 117.175 77.0788 118.579 75.2284 119.408C74.7817 119.408 74.2075 119.408 73.6332 119.408Z" fill="#1F1646"/>
<path d="M46.6484 111.496C46.8399 110.922 46.9674 110.348 47.2227 109.837C48.4988 107.477 49.8387 105.179 51.1786 102.819C52.1995 101.096 53.9861 100.522 55.5813 101.415C57.1764 102.308 57.6868 104.222 56.666 105.945C55.326 108.306 53.9861 110.667 52.6462 113.028C51.8167 114.431 50.413 114.942 49.0093 114.559C47.6055 114.176 46.7122 113.028 46.6484 111.496Z" fill="#1F1646"/>
<path d="M94.8793 101.096C96.0916 101.096 97.0487 101.606 97.6229 102.691C99.0267 105.116 100.43 107.604 101.834 110.029C102.727 111.624 102.153 113.474 100.686 114.304C99.1543 115.197 97.3039 114.687 96.3468 113.091C94.9431 110.667 93.5394 108.242 92.1994 105.818C90.9871 103.648 92.4547 101.096 94.8793 101.096Z" fill="#1F1646"/>
<path d="M53.6031 30.2716C52.9012 30.2716 51.9441 29.7611 51.3698 28.7402C49.9023 26.2518 48.4986 23.7634 47.0949 21.2749C46.2654 19.7436 46.8397 17.8932 48.2434 17.0638C49.7109 16.1705 51.6251 16.6171 52.5184 18.1485C53.9859 20.6369 55.4534 23.1253 56.7933 25.6775C58.0057 27.8469 56.4743 30.2716 53.6031 30.2716Z" fill="#1F1646"/>
<path d="M102.35 19.7436C102.159 20.3178 102.095 20.8921 101.776 21.4025C100.436 23.8271 99.0962 26.188 97.6925 28.6126C96.7354 30.2077 94.885 30.782 93.3537 29.8887C91.8224 29.0592 91.3119 27.145 92.2052 25.5499C93.5451 23.0615 94.9488 20.6368 96.4164 18.2122C97.182 16.8723 98.6496 16.3619 100.053 16.8085C101.393 17.1275 102.223 18.276 102.35 19.7436Z" fill="#1F1646"/>
<path d="M74.4687 76.4031C68.5348 76.4031 63.7493 71.5538 63.8131 65.6199C63.8131 59.6859 68.6624 54.9005 74.5963 54.9643C80.5303 54.9643 85.3157 59.7498 85.2519 65.7475C85.1881 71.6814 80.4026 76.4031 74.4687 76.4031ZM74.4687 61.2811C72.0441 61.2811 70.0661 63.2591 70.0661 65.6837C70.0661 68.1083 71.9803 70.0863 74.4049 70.1501C76.8933 70.1501 78.8713 68.1721 78.8713 65.6837C78.8713 63.1953 76.9571 61.2811 74.4687 61.2811Z" fill="#1F1646"/>
</svg>
