<svg width="138" height="138" viewBox="0 0 138 138" fill="none" xmlns="http://www.w3.org/2000/svg">
<circle cx="69.0025" cy="69.1224" r="68.8775" fill="#F7FCFF"/>
<path d="M95.6397 111.827C91.507 114.352 87.1448 116.189 82.5529 117.413C82.2468 117.49 81.8642 118.102 81.8642 118.485C81.4815 121.776 81.1754 125.066 80.8693 128.357C80.7162 129.888 80.1805 130.424 78.6499 130.424C73.3692 130.424 68.0887 130.424 62.8081 130.424C60.9713 130.424 60.4356 129.964 60.2825 128.051C59.9764 125.066 59.6703 122.082 59.4407 119.02C59.3642 117.949 59.058 117.413 57.9101 117.107C53.5478 115.959 49.4917 114.122 45.5121 111.75C42.9101 113.893 40.308 116.036 37.706 118.255C35.7927 119.862 35.4101 119.786 33.6499 118.026C30.0529 114.505 26.5325 110.908 23.0121 107.311C21.6346 105.934 21.6346 105.398 22.8591 103.867C25.0785 101.189 27.3744 98.4337 29.5938 95.7551C27.0682 91.6225 25.2315 87.2602 23.9305 82.6684C23.8539 82.3623 23.3183 81.9796 23.0121 81.9796C19.7979 81.597 16.507 81.2909 13.2162 80.9847C11.3794 80.8317 10.8438 80.296 10.8438 78.4592C10.8438 73.2551 10.8438 68.0511 10.8438 62.847C10.8438 60.9337 11.3029 60.4745 13.2927 60.3215C16.507 60.0154 19.7213 59.7092 22.9356 59.4031C23.6244 59.3266 23.854 59.097 24.007 58.4847C25.155 54.199 26.8387 50.1429 29.1346 46.3929C29.5172 45.7041 29.3641 45.398 28.905 44.8623C26.8386 42.4133 24.7723 39.8878 22.706 37.4388C21.558 36.0613 21.558 35.3725 22.8591 34.0715C26.5325 30.398 30.206 26.7245 33.8794 23.0511C35.1805 21.75 35.7927 21.6735 37.3233 22.898C40.0019 25.1174 42.6805 27.3368 45.4356 29.6327C46.1244 29.25 46.8131 28.7909 47.5784 28.4082C51.0223 26.9541 54.5427 25.5 58.0631 24.199C58.905 23.8929 59.2876 23.5102 59.3642 22.6684C59.5938 19.6837 59.8999 16.6225 60.206 13.6378C60.4356 11.3419 60.8182 10.9592 63.1141 10.9592C68.2417 10.9592 73.3693 10.9592 78.4968 10.9592C80.3336 10.9592 80.7927 11.3419 80.9458 13.1786C81.2519 16.3929 81.6346 19.6072 81.8642 22.8215C81.9407 23.4337 82.0172 23.8164 82.706 23.9694C87.2979 25.1174 91.5836 27.0307 95.7162 29.5562C98.3948 27.3368 101.073 25.1174 103.752 22.898C105.436 21.5205 105.971 21.5205 107.502 23.0511C111.099 26.7245 114.696 30.3215 118.293 33.9949C119.517 35.2194 119.594 35.9082 118.446 37.2092C116.15 39.9643 113.93 42.7194 111.635 45.4745C114.16 49.6072 116.073 53.9694 117.298 58.6378C117.374 58.9439 117.91 59.1735 118.293 59.25C121.507 59.6327 124.798 59.9388 128.089 60.2449C129.849 60.398 130.385 60.9337 130.385 62.6939C130.385 67.898 130.385 73.1786 130.385 78.3827C130.385 80.1429 129.849 80.6786 128.089 80.8317C124.874 81.1378 121.66 81.5205 118.446 81.75C117.757 81.8266 117.527 82.0562 117.374 82.6684C116.226 86.9541 114.543 91.0102 112.247 94.7602C111.864 95.3725 112.017 95.7551 112.4 96.2909C114.466 98.7398 116.533 101.265 118.599 103.714C119.747 105.092 119.67 105.781 118.446 107.082C114.772 110.755 111.099 114.429 107.425 118.102C106.124 119.403 105.436 119.403 103.982 118.179C101.073 116.342 98.3948 114.046 95.6397 111.827ZM77.5019 126.903C77.8845 123.383 78.2672 119.939 78.4968 116.495C78.5734 115.194 79.2621 114.582 80.4866 114.352C85.2315 113.281 89.6703 111.444 93.8029 108.842C95.8693 107.541 96.0223 107.541 97.9356 109.148C100.385 111.214 102.91 113.204 105.206 115.194C108.497 111.903 111.711 108.689 114.925 105.475C112.783 102.872 110.563 100.194 108.344 97.5154C107.655 96.6735 107.425 95.8317 108.038 94.9133C110.946 90.398 112.936 85.5766 114.16 80.3725C114.39 79.3776 115.002 78.8419 115.997 78.7654C117.374 78.6123 118.752 78.5358 120.129 78.3827C122.272 78.1531 124.415 77.9235 126.558 77.6939C126.558 73.0256 126.558 68.5102 126.558 63.9184C126.099 63.8419 125.716 63.7654 125.41 63.7654C122.425 63.4592 119.517 63.2296 116.533 62.9235C114.696 62.7705 114.39 62.4643 113.93 60.7807C112.783 55.8827 110.869 51.2909 108.114 47.0817C107.349 45.8572 107.425 44.9388 108.344 43.9439C109.415 42.796 110.334 41.5715 111.328 40.347C112.553 38.8929 113.701 37.4388 115.002 35.9082C111.711 32.6939 108.497 29.6327 105.206 26.4184C102.68 28.4847 100.078 30.6276 97.4764 32.847C96.405 33.7654 95.4866 33.8419 94.3386 33.0766C90.0529 30.3215 85.3846 28.3317 80.4101 27.2602C79.1856 26.9541 78.6499 26.3419 78.5733 25.1174C78.2672 21.6735 77.8846 18.2296 77.5785 14.7092C72.9101 14.7092 68.3948 14.7092 63.8029 14.7092C63.4968 18.1531 63.1142 21.5205 62.8081 24.8878C62.7315 26.1888 62.1193 26.9541 60.8182 27.1837C55.8437 28.3317 51.1754 30.2449 46.8896 33.0766C45.8182 33.7654 44.8999 33.7654 43.905 32.9235C42.8336 32.0051 41.6856 31.0868 40.6142 30.1684C39.007 28.8674 37.4764 27.5664 36.0223 26.4184C32.7315 29.7092 29.5172 32.9235 26.2264 36.1378C28.3692 38.6633 30.5121 41.3419 32.7315 43.9439C33.4203 44.7858 33.8029 45.6276 33.1141 46.699C30.206 51.1378 28.2162 56.0358 26.9917 61.2398C26.7621 62.1582 26.2264 62.6939 25.3081 62.7705C23.9305 62.9235 22.5529 63.0766 21.1754 63.1531C18.956 63.3827 16.7366 63.6123 14.5172 63.8419C14.5172 68.5102 14.5172 73.0256 14.5172 77.6174C15.0529 77.6939 15.5886 77.6939 16.0478 77.7705C19.0325 78.0766 21.9407 78.3827 24.9254 78.6123C26.0734 78.6888 26.7621 79.148 27.0682 80.3725C28.2162 85.5 30.206 90.2449 33.1141 94.6837C33.8029 95.6786 33.6499 96.5205 32.8846 97.4388C30.9713 99.7347 29.058 102.107 27.0682 104.403C26.7621 104.786 26.456 105.168 26.3029 105.321C29.5938 108.612 32.8081 111.827 36.0223 115.041C38.5478 112.975 41.1499 110.832 43.7519 108.612C44.8233 107.694 45.7417 107.617 46.8896 108.383C51.0988 111.061 55.6141 112.975 60.4356 114.122C62.2723 114.582 62.5019 114.888 62.655 116.725C62.9611 120.015 63.2672 123.383 63.6499 126.75C68.3182 126.903 72.8335 126.903 77.5019 126.903Z" fill="#1F1646"/>
<path d="M70.6167 35.9847C89.8259 35.9847 105.515 51.7501 105.438 70.8827C105.362 90.0919 89.7494 105.628 70.5402 105.628C51.2545 105.628 35.7188 89.9388 35.7188 70.7296C35.7953 51.5205 51.4075 35.9847 70.6167 35.9847ZM70.6932 102.107C87.9892 102.031 101.994 87.949 101.918 70.5766C101.841 53.4337 87.7595 39.3521 70.6167 39.4286C53.1677 39.5051 39.2392 53.5103 39.3157 70.9592C39.3157 88.1786 53.3973 102.184 70.6932 102.107Z" fill="#1F1646"/>
<path d="M71.5363 78.7654C71.5363 75.6276 71.5363 72.5664 71.5363 69.4286C71.5363 68.5868 71.3068 68.1276 70.5414 67.6684C63.5772 63.2296 63.6537 52.9745 70.771 48.7654C71.3833 48.3827 72.3782 48.2296 73.0669 48.3827C74.0618 48.6123 74.0618 49.6837 74.0618 50.6021C74.0618 51.3674 74.1384 52.2092 74.0618 52.9745C73.9853 53.8164 74.2914 54.2756 74.9802 54.8878C76.1282 55.8827 77.1231 55.9592 78.1945 54.8113C78.5006 54.4286 78.8068 53.9694 78.8833 53.5103C78.9598 52.5154 78.8833 51.5205 78.8833 50.5256C78.8833 48.3827 80.2608 47.6174 82.1741 48.6888C88.1435 52.0562 89.5976 60.1684 85.0823 65.5256C84.47 66.2143 83.8578 66.9796 83.0925 67.3623C81.868 68.0511 81.7149 68.9694 81.7149 70.1939C81.7914 76.2398 81.7914 82.2858 81.7149 88.3317C81.7149 90.7041 80.1843 92.6174 77.9649 93.2296C75.7455 93.7654 73.4496 92.847 72.3782 90.8572C71.919 90.0154 71.6894 89.0205 71.6894 88.1021C71.4598 84.9643 71.5363 81.9031 71.5363 78.7654ZM70.3119 53.8929C70.1588 54.1225 69.9292 54.4286 69.7761 54.6582C67.7098 58.4847 69.2404 63.3062 73.2965 65.1429C74.5975 65.7552 75.0568 66.5205 75.0568 67.9745C74.9802 74.4031 75.0568 80.9082 75.0568 87.3368C75.0568 87.7194 74.9037 88.1786 75.1333 88.4082C75.5159 88.9439 75.9751 89.5562 76.5874 89.7092C77.4292 89.8623 77.9649 89.25 78.118 88.4082C78.1945 88.0256 78.118 87.6429 78.118 87.2603C78.118 80.7551 78.118 74.25 78.118 67.7449C78.118 66.4439 78.5006 65.6786 79.7251 65.1429C81.7914 64.2245 83.169 62.6174 83.7812 60.4745C84.47 58.1021 84.2404 55.8062 82.4802 53.8164C82.4037 55.0409 82.4802 56.2654 81.1792 57.0307C79.9547 57.7194 78.8833 58.5613 77.7353 59.3266C76.8935 59.8623 76.1282 59.9388 75.2864 59.3266C74.4445 58.7143 73.6027 58.1021 72.6843 57.5664C71.3833 56.7245 70.0823 55.8827 70.3119 53.8929Z" fill="#1F1646"/>
<path d="M61.9636 69.2756C62.9585 69.2756 63.7238 69.2756 64.4891 69.2756C65.484 69.2756 66.4024 69.3521 66.7085 70.4235C67.0911 71.5715 66.4789 72.2603 65.484 72.796C67.2442 77.9235 66.2493 83.2807 66.4023 88.4847C66.4789 91.1633 64.2595 93.3062 61.5044 93.3827C60.5095 93.3827 59.5912 93.3827 58.5963 93.3827C55.7646 93.3062 53.6217 91.0868 53.5452 88.2552C53.4687 84.5052 53.4687 80.7552 53.5452 77.0817C53.5452 75.9337 54.0044 74.7858 54.3871 73.7143C54.5401 73.1021 54.5401 72.796 54.0044 72.3368C53.5452 71.9541 53.2391 70.9592 53.4687 70.5001C53.6983 69.9643 54.5401 69.4286 55.1524 69.3521C56.1473 69.1225 57.1421 69.2756 58.3666 69.2756C58.3666 68.7398 58.3666 68.3572 58.3666 67.898C58.3666 62.1582 58.3666 56.4184 58.3666 50.6786C58.3666 49.6837 58.5962 48.8419 59.6677 48.4592C60.8922 48.0766 61.8871 48.995 61.8871 50.5256C61.8871 55.8062 61.8871 61.0868 61.8871 66.3674C61.9636 67.2858 61.9636 68.2041 61.9636 69.2756ZM58.4432 72.8725C57.984 74.2501 57.5248 75.5511 57.2187 76.8521C57.0656 77.7705 57.1422 78.6888 57.1422 79.6072C57.1422 81.8266 57.1422 84.046 57.1422 86.2654C57.1422 89.8623 57.2187 89.9388 60.7391 89.9388C62.4228 89.9388 62.882 89.4796 62.882 87.796C62.882 84.8113 63.035 81.75 62.882 78.7654C62.8054 76.7756 62.2697 74.8623 61.9636 72.8725C60.6626 72.8725 59.6677 72.8725 58.4432 72.8725Z" fill="#1F1646"/>
</svg>
