<svg width="15" height="16" viewBox="0 0 15 16" fill="none" xmlns="http://www.w3.org/2000/svg">
<path d="M6.68089 0.102105C6.99861 -0.0167694 7.34575 -0.0322668 7.6728 0.0578233L7.81128 0.102105L13.4471 2.21555C13.7329 2.3227 13.9823 2.50886 14.1663 2.75232C14.3504 2.99579 14.4614 3.28654 14.4865 3.59069L14.4922 3.72354V8.0414C14.4921 9.34604 14.1399 10.6265 13.4726 11.7475C12.8053 12.8686 11.8477 13.7887 10.7009 14.4107L10.4867 14.5226L7.78632 15.8728C7.63764 15.947 7.47523 15.9898 7.30926 15.9984C7.14329 16.007 6.97734 15.9812 6.82179 15.9227L6.70585 15.8728L4.00548 14.5226C2.83854 13.9391 1.85079 13.0514 1.1465 11.9532C0.442199 10.8549 0.0474864 9.58689 0.0040257 8.28294L0 8.0414V3.72354C4.68182e-06 3.4185 0.0866524 3.11974 0.249856 2.86204C0.41306 2.60433 0.646105 2.39828 0.921863 2.26788L1.04505 2.21555L6.68089 0.102105ZM7.24609 1.6101L1.61024 3.72354V8.0414C1.61026 9.05183 1.88193 10.0437 2.39681 10.9131C2.91168 11.7825 3.65083 12.4975 4.53686 12.9832L4.72606 13.0823L7.24609 14.3423L9.76611 13.0823C10.67 12.6304 11.4358 11.9438 11.9833 11.0943C12.5308 10.2449 12.8398 9.26382 12.8779 8.25395L12.8819 8.0414V3.72354L7.24609 1.6101ZM10.0101 5.28225C10.155 5.13785 10.3494 5.05402 10.5538 5.04778C10.7583 5.04153 10.9575 5.11335 11.1109 5.24864C11.2643 5.38392 11.3605 5.57254 11.3799 5.77617C11.3993 5.9798 11.3405 6.18319 11.2153 6.34501L11.1485 6.42069L6.9345 10.6355C6.781 10.789 6.57649 10.8807 6.35979 10.8934C6.14309 10.906 5.9293 10.8386 5.75903 10.7039L5.68174 10.6355L3.74623 8.69999C3.60029 8.55543 3.51513 8.36057 3.50817 8.15528C3.5012 7.95 3.57296 7.74981 3.70876 7.5957C3.84456 7.44159 4.03412 7.34521 4.23866 7.32629C4.44319 7.30737 4.64722 7.36733 4.80899 7.49392L4.88467 7.56074L6.30812 8.98419L10.0101 5.28225Z" fill="#222222"/>
</svg>
