<svg width="32" height="32" viewBox="0 0 32 32" fill="none" xmlns="http://www.w3.org/2000/svg">
<circle cx="16" cy="16" r="16" fill="#5B5B5B"/>
<path d="M10.9375 9.00002C10.9372 9.53046 10.7263 10.0391 10.351 10.4139C9.97575 10.7888 9.46693 10.9993 8.9365 10.999C8.40607 10.9988 7.89746 10.7878 7.52258 10.4125C7.14769 10.0373 6.93724 9.52846 6.9375 8.99802C6.93777 8.46759 7.14873 7.95899 7.52399 7.5841C7.89925 7.20922 8.40807 6.99876 8.9385 6.99902C9.46893 6.99929 9.97754 7.21026 10.3524 7.58552C10.7273 7.96078 10.9378 8.46959 10.9375 9.00002ZM10.9975 12.48H6.9975V25H10.9975V12.48ZM17.3175 12.48H13.3375V25H17.2775V18.43C17.2775 14.77 22.0475 14.43 22.0475 18.43V25H25.9975V17.07C25.9975 10.9 18.9375 11.13 17.2775 14.16L17.3175 12.48Z" fill="white"/>
</svg>
