<svg width="19" height="16" viewBox="0 0 19 16" fill="none" xmlns="http://www.w3.org/2000/svg">
<path d="M2 0H11C11.5304 0 12.0391 0.168571 12.4142 0.468629C12.7893 0.768687 13 1.17565 13 1.6V2.4C13 2.61217 12.8946 2.81566 12.7071 2.96569C12.5196 3.11571 12.2652 3.2 12 3.2C11.7348 3.2 11.4804 3.11571 11.2929 2.96569C11.1054 2.81566 11 2.61217 11 2.4V1.6H2V14.4H11V13.6C11 13.3878 11.1054 13.1843 11.2929 13.0343C11.4804 12.8843 11.7348 12.8 12 12.8C12.2652 12.8 12.5196 12.8843 12.7071 13.0343C12.8946 13.1843 13 13.3878 13 13.6V14.4C13 14.8243 12.7893 15.2313 12.4142 15.5314C12.0391 15.8314 11.5304 16 11 16H2C1.46957 16 0.960859 15.8314 0.585786 15.5314C0.210714 15.2313 0 14.8243 0 14.4V1.6C0 1.17565 0.210714 0.768687 0.585786 0.468629C0.960859 0.168571 1.46957 0 2 0Z" fill="#222222"/>
<path d="M12.795 11.436C13.185 11.748 13.815 11.748 14.205 11.436L17.793 8.56555C17.9805 8.41553 18.0858 8.21209 18.0858 7.99995C18.0858 7.78782 17.9805 7.58438 17.793 7.43435L14.205 4.56395C14.0149 4.42651 13.7661 4.35275 13.5099 4.35792C13.2538 4.36309 13.0099 4.4468 12.8287 4.59175C12.6476 4.73669 12.5429 4.93178 12.5365 5.1367C12.53 5.34161 12.6222 5.54068 12.794 5.69275L14.67 7.19995H6C5.73478 7.19995 5.48043 7.28424 5.29289 7.43427C5.10536 7.5843 5 7.78778 5 7.99995C5 8.21213 5.10536 8.41561 5.29289 8.56564C5.48043 8.71567 5.73478 8.79995 6 8.79995H14.67L12.794 10.3072C12.6073 10.4571 12.5026 10.6601 12.5028 10.8717C12.503 11.0833 12.6081 11.2862 12.795 11.436Z" fill="#222222"/>
</svg>
