<svg width="24" height="25" viewBox="0 0 24 25" fill="none" xmlns="http://www.w3.org/2000/svg">
<g id="Frame 48095767/basil:arrow-left-outline">
<path id="Vector" d="M12.9698 15.9701C12.8961 16.0388 12.837 16.1216 12.796 16.2136C12.7551 16.3056 12.733 16.4049 12.7312 16.5056C12.7295 16.6063 12.748 16.7063 12.7857 16.7997C12.8234 16.8931 12.8796 16.9779 12.9508 17.0491C13.022 17.1203 13.1068 17.1765 13.2002 17.2142C13.2936 17.2519 13.3936 17.2705 13.4944 17.2687C13.5951 17.2669 13.6944 17.2449 13.7864 17.2039C13.8784 17.1629 13.9612 17.1038 14.0298 17.0301L18.0298 13.0301C18.0996 12.9606 18.155 12.878 18.1928 12.787C18.2306 12.6961 18.25 12.5986 18.25 12.5001C18.25 12.4016 18.2306 12.3041 18.1928 12.2131C18.155 12.1222 18.0996 12.0396 18.0298 11.9701L14.0298 7.97009C13.9612 7.8964 13.8784 7.8373 13.7864 7.79631C13.6944 7.75532 13.5951 7.73328 13.4944 7.7315C13.3936 7.72972 13.2936 7.74825 13.2002 7.78597C13.1068 7.82369 13.022 7.87983 12.9508 7.95105C12.8796 8.02227 12.8234 8.1071 12.7857 8.20049C12.748 8.29388 12.7295 8.39391 12.7312 8.49461C12.733 8.59532 12.7551 8.69463 12.796 8.78663C12.837 8.87863 12.8961 8.96143 12.9698 9.03009L15.6898 11.7501L5.99983 11.7501C5.80092 11.7501 5.61015 11.8291 5.4695 11.9698C5.32885 12.1104 5.24983 12.3012 5.24983 12.5001C5.24983 12.699 5.32885 12.8898 5.4695 13.0304C5.61015 13.1711 5.80092 13.2501 5.99983 13.2501L15.6898 13.2501L12.9698 15.9701Z" fill="#FF6131"/>
</g>
</svg>
