<svg width="22" height="22" viewBox="0 0 22 22" fill="none" xmlns="http://www.w3.org/2000/svg">
<path d="M10.9991 7.15388V4.84619M10.9991 7.15388C9.72218 7.15388 8.69141 7.15388 8.69141 8.69235C8.69141 11 13.3068 11 13.3068 13.3077C13.3068 14.8462 12.276 14.8462 10.9991 14.8462M10.9991 7.15388C12.276 7.15388 13.3068 7.7385 13.3068 8.69235M8.69141 13.3077C8.69141 14.4616 9.72218 14.8462 10.9991 14.8462M10.9991 14.8462V17.1539" stroke="#222222" stroke-width="2" stroke-linecap="round" stroke-linejoin="round"/>
<path d="M11 21C16.5228 21 21 16.5228 21 11C21 5.47715 16.5228 1 11 1C5.47715 1 1 5.47715 1 11C1 16.5228 5.47715 21 11 21Z" stroke="#222222" stroke-width="2" stroke-linecap="round" stroke-linejoin="round"/>
</svg>
