<svg width="21" height="17" viewBox="0 0 21 17" fill="none" xmlns="http://www.w3.org/2000/svg">
<path d="M19.6364 0.5H0.727273C0.325 0.5 0 0.825 0 1.22727V15.7727C0 16.175 0.325 16.5 0.727273 16.5H19.6364C20.0386 16.5 20.3636 16.175 20.3636 15.7727V1.22727C20.3636 0.825 20.0386 0.5 19.6364 0.5ZM1.63636 2.13636H18.7273V4.86364H1.63636V2.13636ZM18.7273 14.8636H1.63636V6.86364H18.7273V14.8636ZM13.3409 13.4091H17.0909C17.1909 13.4091 17.2727 13.3273 17.2727 13.2273V11.5909C17.2727 11.4909 17.1909 11.4091 17.0909 11.4091H13.3409C13.2409 11.4091 13.1591 11.4909 13.1591 11.5909V13.2273C13.1591 13.3273 13.2409 13.4091 13.3409 13.4091Z" fill="#222222"/>
</svg>
