<svg width="183" height="38" viewBox="0 0 183 38" fill="none" xmlns="http://www.w3.org/2000/svg">
<g clip-path="url(#clip0_2444_32163)">
<path d="M41.27 14.7401H56.74C57.09 10.0301 56.27 6.78011 54.26 4.10011C52.26 1.43011 49.07 0.0701133 44.7 0.0401133C40.9 0.0101133 37.79 1.18011 35.36 3.54011C32.93 5.91011 31.7 9.03011 31.67 12.8901C31.64 16.7201 32.81 19.8401 35.18 22.2301C37.55 24.6301 40.7 25.8401 44.62 25.8701C49.08 25.9101 52.65 24.4801 55.34 21.5801L52.04 18.0901C50.19 19.9801 47.9 20.9101 45.18 20.8801C43.32 20.8701 41.75 20.3401 40.47 19.3001C39.31 18.3401 38.5 17.0701 38.08 15.4601C38.07 15.4501 38.07 15.4401 38.07 15.4301C38.03 15.3001 38 15.1701 37.97 15.0301C37.44 12.5801 37.86 10.9001 37.86 10.9001C38.16 9.00011 38.92 7.52011 40.15 6.43011C41.38 5.35011 42.89 4.81011 44.7 4.83011C46.63 4.85011 48.28 5.37011 49.44 6.48011C50.6 7.60011 51.08 8.58011 51.16 10.3801H43.78C42.39 10.3801 41.26 11.5101 41.26 12.9001V14.7401H41.27Z" fill="#4FB4E6"/>
<path d="M66.5699 5.06V2.69C66.5799 1.3 65.4599 0.14 64.0699 0.12H60.4199V25.8H63.8699C65.2599 25.81 66.4799 24.69 66.4899 23.3V13.32C66.5099 10.98 67.3099 9.12 68.8899 7.76C69.9999 6.8 71.3699 6.23 72.9899 6.03C74.2499 5.88 75.1999 4.82 75.2199 3.56L75.2499 0C71.2099 0.04 68.3399 1.72 66.5699 5.06Z" fill="#4FB4E6"/>
<path d="M95.97 14.1C95.06 12.97 93.94 12.14 92.62 11.6C91.3 11.06 89.98 10.62 88.67 10.26C87.35 9.89997 86.24 9.46997 85.33 8.94997C84.42 8.42997 83.96 7.79997 83.97 7.03997C83.98 5.54997 85.13 4.81997 87.41 4.83997C89.12 4.84997 90.88 5.26997 92.69 6.08997C93.93 6.64997 95.38 6.16997 96 4.95997L97.11 2.78997C94.46 0.959966 91.37 0.0299663 87.83 -3.3701e-05C85.08 -0.0200337 82.79 0.619966 80.95 1.90997C79.11 3.20997 78.19 5.08997 78.17 7.55997C78.16 9.23997 78.6 10.63 79.49 11.72C80.38 12.82 81.48 13.61 82.77 14.1C84.07 14.59 85.36 15.02 86.66 15.39C87.95 15.77 89.05 16.22 89.95 16.75C90.84 17.28 91.29 17.97 91.28 18.83C91.27 20.42 90.01 21.2 87.51 21.18C86.08 21.17 84.58 20.88 83 20.31C82.32 20.06 81.68 19.78 81.09 19.46C79.84 18.79 78.3 19.23 77.66 20.49L76.75 22.28C79.46 24.68 82.94 25.9 87.22 25.93C90.1 25.95 92.49 25.31 94.41 23.99C96.32 22.68 97.29 20.79 97.3 18.32C97.33 16.63 96.88 15.23 95.97 14.1Z" fill="#4FB4E6"/>
<path d="M119.23 18.6099C117.89 20.0199 116.17 20.7199 114.08 20.7099C111.93 20.6899 110.19 19.9599 108.87 18.5299C107.55 17.0999 106.91 15.2399 106.93 12.9599C106.95 10.6799 107.63 8.82988 108.97 7.41988C110.31 5.99988 112.06 5.30988 114.21 5.31988C116.3 5.33988 118 6.05988 119.32 7.49988C120.64 8.92988 121.29 10.7899 121.27 13.0699C121.25 15.3499 120.57 17.1999 119.23 18.6099ZM123.86 3.68988C121.41 1.29988 118.21 0.0898836 114.25 0.0498836C110.23 0.0198836 106.97 1.17988 104.49 3.53988C102 5.88988 100.74 8.98988 100.71 12.8099C100.68 16.6699 101.89 19.8099 104.34 22.2199C106.79 24.6299 110.02 25.8499 114.04 25.8799C118 25.9199 121.22 24.7499 123.71 22.3799C126.2 20.0099 127.46 16.8899 127.49 13.0299C127.52 9.18988 126.32 6.07988 123.86 3.68988Z" fill="#4FB4E6"/>
<path d="M153.45 2.7901C151.78 1.0201 149.5 0.120098 146.59 0.100098C142.25 0.130098 139.22 1.7701 137.45 5.0101V2.6601C137.46 1.2701 136.34 0.140098 134.95 0.120098H131.09V25.8001H134.74C136.13 25.8101 137.35 24.7201 137.36 23.3301V13.1801C137.37 11.0601 137.98 9.3201 139.18 7.9701C140.38 6.6201 142.01 5.9401 144.07 5.9201C145.81 5.9401 147.19 6.4601 148.19 7.5001C149.2 8.5401 149.69 9.9401 149.67 11.7101V25.8001H153.26C154.65 25.8101 155.9 24.6901 155.91 23.3001V9.9601C155.93 6.9501 155.11 4.5601 153.45 2.7901Z" fill="#4FB4E6"/>
<path d="M176.57 16.96C176.57 17.01 176.57 17.06 176.56 17.1C176.37 18.3 175.65 19.31 174.41 20.12C173.14 20.95 171.62 21.36 169.84 21.34C168.44 21.33 167.35 21.01 166.55 20.37C165.75 19.73 165.35 18.87 165.35 17.8C165.36 16.69 165.75 15.89 166.53 15.41C167.31 14.93 168.52 14.74 170.17 14.76H176.58L176.57 16.96ZM179.98 2.45C178.17 0.849999 175.62 0.0399988 172.33 0.0199988C170.15 -1.1716e-06 168.23 0.229999 166.6 0.709999C164.96 1.19 163.15 1.97 161.14 3.06L162.19 5.11C162.8 6.31 164.24 6.79 165.47 6.25C167.35 5.43 169.16 5.02 170.91 5.04C172.78 5.06 174.2 5.48 175.17 6.31C176.15 7.14 176.63 8.3 176.62 9.79L176.61 10.39H169.21C166.13 10.4 163.75 11.06 162.07 12.4C160.38 13.73 159.53 15.58 159.51 17.96C159.49 20.27 160.28 22.17 161.88 23.65C163.49 25.14 165.63 25.89 168.32 25.91C172.02 25.94 174.77 24.84 176.56 22.61L176.55 23.18C176.54 24.56 177.66 25.7 179.05 25.72H182.7V9.12C182.7 6.27 181.79 4.05 179.98 2.45Z" fill="#4FB4E6"/>
<path d="M5.85 37.2H0V14.47H11.37V31.69C11.37 34.73 8.9 37.2 5.85 37.2Z" fill="#4FB4E6"/>
<path d="M20.2602 0.129883H14.4102V25.9099H20.2602C23.3102 25.9099 25.7702 23.4399 25.7702 20.3999V5.64988C25.7802 2.59988 23.3102 0.129883 20.2602 0.129883Z" fill="#4FB4E6"/>
<path d="M5.52 0.129883H11.37V11.4199H0V5.64988C0 2.59988 2.47 0.129883 5.52 0.129883Z" fill="#4FB4E6"/>
</g>
<defs>
<clipPath id="clip0_2444_32163">
<rect width="182.71" height="37.2" fill="white"/>
</clipPath>
</defs>
</svg>
