<svg width="136" height="28" viewBox="0 0 136 28" fill="none" xmlns="http://www.w3.org/2000/svg">
<mask id="mask0_3097_9409" style="mask-type:luminance" maskUnits="userSpaceOnUse" x="0" y="0" width="136" height="28">
<path d="M135.779 0.252441H0.226562V27.2524H135.779V0.252441Z" fill="white"/>
</mask>
<g mask="url(#mask0_3097_9409)">
<path d="M30.8503 11.2106H42.327C42.5863 7.7166 41.9785 5.30224 40.4865 3.32145C39.003 1.33641 36.6354 0.329008 33.3964 0.307754C30.5783 0.286501 28.2659 1.15363 26.4679 2.90914C24.6656 4.6689 23.756 6.98549 23.7348 9.84617C23.7135 12.6898 24.5806 14.9979 26.3404 16.7747C28.1002 18.5515 30.4337 19.4526 33.3454 19.4781C36.6567 19.5079 39.3048 18.4452 41.2984 16.2986L38.8543 13.7057C37.4813 15.1042 35.781 15.7971 33.762 15.78C32.3805 15.7715 31.2159 15.3762 30.268 14.6069C29.4051 13.897 28.8058 12.9491 28.4955 11.759C28.4912 11.7547 28.4912 11.7462 28.487 11.7377C28.4572 11.6399 28.436 11.5422 28.4104 11.4402C28.0194 9.62088 28.3297 8.37545 28.3297 8.37545C28.555 6.96424 29.1203 5.86333 30.0299 5.05996C30.9396 4.25659 32.066 3.86128 33.4049 3.86978C34.8374 3.88253 36.0573 4.27359 36.9202 5.09821C37.7788 5.92709 38.1359 6.6582 38.1954 7.98864H32.7163C31.6877 7.98864 30.8503 8.82602 30.8503 9.85467V11.2106Z" fill="#5B5B5B"/>
</g>
<mask id="mask1_3097_9409" style="mask-type:luminance" maskUnits="userSpaceOnUse" x="0" y="0" width="136" height="28">
<path d="M135.779 0.252441H0.226562V27.2524H135.779V0.252441Z" fill="white"/>
</mask>
<g mask="url(#mask1_3097_9409)">
<path d="M49.6199 4.03134V2.27158C49.6241 1.23867 48.7995 0.375797 47.7666 0.367296H45.0547V19.4144H47.6136C48.6465 19.4229 49.5476 18.594 49.5561 17.5611V10.1565C49.5689 8.41799 50.1639 7.04504 51.3329 6.03339C52.1575 5.32353 53.1691 4.89422 54.3721 4.74545C55.3072 4.63068 56.0171 3.84856 56.0256 2.90917L56.0468 0.269531C53.0629 0.299286 50.9291 1.55322 49.6199 4.03134Z" fill="#5B5B5B"/>
</g>
<mask id="mask2_3097_9409" style="mask-type:luminance" maskUnits="userSpaceOnUse" x="0" y="0" width="136" height="28">
<path d="M135.779 0.252441H0.226562V27.2524H135.779V0.252441Z" fill="white"/>
</mask>
<g mask="url(#mask2_3097_9409)">
<path d="M71.4356 10.7344C70.7598 9.89281 69.9309 9.27647 68.949 8.88116C67.9671 8.48585 66.9895 8.1543 66.0161 7.88651C65.0384 7.61872 64.2138 7.29992 63.5379 6.91737C62.8621 6.53481 62.5263 6.06299 62.5305 5.49766C62.539 4.39674 63.3892 3.84841 65.0767 3.86542C66.3476 3.87392 67.6526 4.18421 68.9958 4.7878C69.9139 5.20436 70.9936 4.84306 71.4526 3.94618L72.2772 2.33519C70.3134 0.983488 68.0139 0.290636 65.387 0.273633C63.3424 0.256631 61.6422 0.732701 60.2862 1.69334C58.9218 2.65399 58.2374 4.05669 58.2247 5.88446C58.2162 7.1299 58.5435 8.1628 59.2065 8.97467C59.8696 9.79079 60.6815 10.3774 61.6379 10.7387C62.5986 11.1042 63.5592 11.4188 64.5241 11.6951C65.4805 11.9756 66.2966 12.3114 66.9639 12.7025C67.627 13.0935 67.9586 13.6079 67.9543 14.2412C67.9458 15.4186 67.0107 15.9967 65.1574 15.984C64.099 15.9755 62.9811 15.7587 61.8164 15.3421C61.3106 15.1593 60.843 14.9511 60.401 14.713C59.4786 14.2199 58.3267 14.5387 57.8591 15.4739L57.1875 16.8001C59.1938 18.5768 61.7824 19.4822 64.9534 19.5077C67.0915 19.5247 68.864 19.0444 70.2837 18.071C71.7034 17.1019 72.4175 15.6949 72.4303 13.8629C72.4388 12.6132 72.1072 11.5718 71.4356 10.7344Z" fill="#5B5B5B"/>
</g>
<mask id="mask3_3097_9409" style="mask-type:luminance" maskUnits="userSpaceOnUse" x="0" y="0" width="136" height="28">
<path d="M135.779 0.252441H0.226562V27.2524H135.779V0.252441Z" fill="white"/>
</mask>
<g mask="url(#mask3_3097_9409)">
<path d="M92.1225 3.00693C90.3075 1.23441 87.9314 0.333279 84.9942 0.303525C82.0102 0.278021 79.5916 1.14515 77.7511 2.88791C75.9021 4.63492 74.9669 6.93026 74.9457 9.76968C74.9244 12.6346 75.8171 14.9639 77.6406 16.7535C79.4556 18.543 81.8572 19.4484 84.8369 19.4696C87.7741 19.4994 90.1629 18.628 92.012 16.8682C93.861 15.1085 94.7919 12.7961 94.8174 9.9312C94.8386 7.09178 93.9417 4.78794 92.1225 3.00693ZM88.688 14.0798C87.6933 15.1255 86.4181 15.644 84.8709 15.6355C83.2727 15.6228 81.9847 15.0787 81.0071 14.0161C80.0294 12.9534 79.5491 11.5762 79.5661 9.88445C79.5789 8.18844 80.0847 6.82399 81.0793 5.76984C82.074 4.71993 83.3704 4.20135 84.9687 4.2141C86.5201 4.22686 87.7826 4.76669 88.7602 5.83359C89.7421 6.89625 90.2224 8.27346 90.2054 9.96521C90.1842 11.6612 89.6826 13.0299 88.688 14.0798Z" fill="#5B5B5B"/>
</g>
<mask id="mask4_3097_9409" style="mask-type:luminance" maskUnits="userSpaceOnUse" x="0" y="0" width="136" height="28">
<path d="M135.779 0.252441H0.226562V27.2524H135.779V0.252441Z" fill="white"/>
</mask>
<g mask="url(#mask4_3097_9409)">
<path d="M114.075 2.34374C112.838 1.02605 111.142 0.36295 108.982 0.345947C105.76 0.3672 103.512 1.58288 102.203 3.99299V2.25023C102.211 1.21733 101.382 0.379952 100.349 0.3672H97.4844V19.4143H100.196C101.229 19.4228 102.135 18.6152 102.143 17.5823V10.0501C102.152 8.4774 102.606 7.18946 103.491 6.18631C104.383 5.18316 105.59 4.67734 107.116 4.66459C108.404 4.67734 109.424 5.06415 110.168 5.83776C110.916 6.60713 111.282 7.64853 111.269 8.96623V19.4185H113.934C114.967 19.427 115.89 18.5982 115.898 17.5653V7.66128C115.915 5.4297 115.307 3.65719 114.075 2.34374Z" fill="#5B5B5B"/>
</g>
<mask id="mask5_3097_9409" style="mask-type:luminance" maskUnits="userSpaceOnUse" x="0" y="0" width="136" height="28">
<path d="M135.779 0.252441H0.226562V27.2524H135.779V0.252441Z" fill="white"/>
</mask>
<g mask="url(#mask5_3097_9409)">
<path d="M133.762 2.08868C132.423 0.902753 130.527 0.299164 128.087 0.282161C126.467 0.269409 125.048 0.439434 123.841 0.796487C122.625 1.14929 121.277 1.73163 119.79 2.5435L120.568 4.06522C121.018 4.9536 122.089 5.31066 122.999 4.9111C124.389 4.29901 125.736 4.00146 127.037 4.00996C128.423 4.02272 129.477 4.33726 130.195 4.9536C130.918 5.56994 131.279 6.43282 131.271 7.53374L131.266 7.98005H125.775C123.492 7.9843 121.728 8.48163 120.478 9.46777C119.224 10.4582 118.591 11.8311 118.578 13.5951C118.566 15.3081 119.148 16.7193 120.338 17.8203C121.528 18.9212 123.118 19.4823 125.116 19.495C127.862 19.5163 129.902 18.7001 131.232 17.0466L131.228 17.4717C131.22 18.5004 132.049 19.342 133.081 19.3505H135.789V7.04066C135.776 4.9281 135.101 3.2746 133.762 2.08868ZM131.224 12.8513C131.224 12.8853 131.22 12.9235 131.215 12.9575C131.075 13.8502 130.544 14.5983 129.617 15.1976C128.674 15.814 127.543 16.1158 126.229 16.103C125.192 16.0945 124.38 15.8565 123.79 15.3804C123.19 14.9043 122.897 14.271 122.901 13.4719C122.91 12.6515 123.199 12.0564 123.777 11.6994C124.355 11.338 125.256 11.2063 126.48 11.2148H131.237L131.224 12.8513Z" fill="#5B5B5B"/>
</g>
<mask id="mask6_3097_9409" style="mask-type:luminance" maskUnits="userSpaceOnUse" x="0" y="11" width="9" height="17">
<path d="M0.226562 11.0066V27.2525H6.73003C7.89045 26.5299 8.65981 25.242 8.65981 23.7797V11.0066H0.226562Z" fill="white"/>
</mask>
<g mask="url(#mask6_3097_9409)">
<path d="M-6.38281 23.8605L1.98668 7.58057L15.2614 14.4071L6.8919 30.6827L-6.38281 23.8605Z" fill="#5B5B5B"/>
</g>
<mask id="mask7_3097_9409" style="mask-type:luminance" maskUnits="userSpaceOnUse" x="10" y="0" width="10" height="20">
<path d="M10.9219 0.371438V19.495H15.2618C17.5231 19.495 19.3551 17.663 19.3551 15.4017V4.46054C19.3551 2.19921 17.5231 0.367188 15.2618 0.367188H10.9219V0.371438Z" fill="white"/>
</mask>
<g mask="url(#mask7_3097_9409)">
<path d="M3.14062 15.4952L12.6833 -3.05884L27.1269 4.36701L17.5885 22.9253L3.14062 15.4952Z" fill="#5B5B5B"/>
</g>
<mask id="mask8_3097_9409" style="mask-type:luminance" maskUnits="userSpaceOnUse" x="0" y="0" width="9" height="9">
<path d="M4.31992 0.371582C2.05858 0.371582 0.226562 2.2036 0.226562 4.46494V8.74957H8.65981V0.371582H4.31992Z" fill="white"/>
</mask>
<g mask="url(#mask8_3097_9409)">
<path d="M-3.17969 6.99815L1.98908 -3.05884L12.0673 2.12268L6.89431 12.1754L-3.17969 6.99815Z" fill="#5B5B5B"/>
</g>
</svg>
