<svg width="15" height="16" viewBox="0 0 15 16" fill="none" xmlns="http://www.w3.org/2000/svg">
<path fill-rule="evenodd" clip-rule="evenodd" d="M7.2 8.8C9.1168 8.8 10.86 9.3552 12.1424 10.1368C12.7824 10.5288 13.3296 10.9888 13.7248 11.4888C14.1136 11.9816 14.4 12.5704 14.4 13.2C14.4 13.876 14.0712 14.4088 13.5976 14.7888C13.1496 15.1488 12.5584 15.3872 11.9304 15.5536C10.668 15.8872 8.9832 16 7.2 16C5.4168 16 3.732 15.888 2.4696 15.5536C1.8416 15.3872 1.2504 15.1488 0.8024 14.7888C0.328 14.408 0 13.876 0 13.2C0 12.5704 0.2864 11.9816 0.6752 11.4888C1.0704 10.9888 1.6168 10.5288 2.2576 10.1368C3.54 9.3552 5.284 8.8 7.2 8.8ZM7.2 10.4C5.5816 10.4 4.1256 10.872 3.0912 11.5032C2.5736 11.8184 2.1832 12.1608 1.9312 12.4808C1.672 12.8088 1.6 13.0568 1.6 13.2C1.6 13.2976 1.6296 13.4008 1.804 13.5408C2.0032 13.7008 2.3496 13.8664 2.8792 14.0064C3.9336 14.2864 5.4488 14.4 7.2 14.4C8.952 14.4 10.4664 14.2856 11.52 14.0064C12.0504 13.8664 12.3968 13.7008 12.596 13.5408C12.7704 13.4008 12.8 13.2976 12.8 13.2C12.8 13.056 12.728 12.8088 12.4696 12.4808C12.2168 12.1608 11.8264 11.8184 11.3088 11.5032C10.2744 10.8712 8.8184 10.4 7.2 10.4ZM7.2 0C8.26087 0 9.27828 0.421427 10.0284 1.17157C10.7786 1.92172 11.2 2.93913 11.2 4C11.2 5.06087 10.7786 6.07828 10.0284 6.82843C9.27828 7.57857 8.26087 8 7.2 8C6.13913 8 5.12172 7.57857 4.37157 6.82843C3.62143 6.07828 3.2 5.06087 3.2 4C3.2 2.93913 3.62143 1.92172 4.37157 1.17157C5.12172 0.421427 6.13913 0 7.2 0ZM7.2 1.6C6.88483 1.6 6.57274 1.66208 6.28156 1.78269C5.99038 1.9033 5.7258 2.08008 5.50294 2.30294C5.28008 2.5258 5.1033 2.79038 4.98269 3.08156C4.86208 3.37274 4.8 3.68483 4.8 4C4.8 4.31517 4.86208 4.62726 4.98269 4.91844C5.1033 5.20962 5.28008 5.4742 5.50294 5.69706C5.7258 5.91992 5.99038 6.0967 6.28156 6.21731C6.57274 6.33792 6.88483 6.4 7.2 6.4C7.83652 6.4 8.44697 6.14714 8.89706 5.69706C9.34714 5.24697 9.6 4.63652 9.6 4C9.6 3.36348 9.34714 2.75303 8.89706 2.30294C8.44697 1.85286 7.83652 1.6 7.2 1.6Z" fill="#222222"/>
</svg>
