<svg width="16" height="16" viewBox="0 0 16 16" fill="none" xmlns="http://www.w3.org/2000/svg">
<path d="M6.22222 6L7.4 5.42222C7.59259 5.33333 7.79259 5.28889 8 5.28889C8.20741 5.28889 8.40741 5.33333 8.6 5.42222L9.77778 6V1.77778H6.22222V6ZM4.44445 12.4444C4.19259 12.4444 3.98133 12.3591 3.81067 12.1884C3.64 12.0178 3.55496 11.8068 3.55556 11.5556C3.55556 11.3037 3.64089 11.0924 3.81156 10.9218C3.98222 10.7511 4.19319 10.6661 4.44445 10.6667H7.11111C7.36296 10.6667 7.57422 10.752 7.74489 10.9227C7.91556 11.0933 8.00059 11.3043 8 11.5556C8 11.8074 7.91467 12.0187 7.744 12.1893C7.57333 12.36 7.36237 12.445 7.11111 12.4444H4.44445ZM1.77778 16C1.28889 16 0.870223 15.8258 0.521779 15.4773C0.173335 15.1289 -0.000591083 14.7105 1.50915e-06 14.2222V1.77778C1.50915e-06 1.28889 0.174224 0.870223 0.522668 0.521779C0.871112 0.173335 1.28948 -0.000591083 1.77778 1.50915e-06H14.2222C14.7111 1.50915e-06 15.1298 0.174224 15.4782 0.522668C15.8267 0.871112 16.0006 1.28948 16 1.77778V14.2222C16 14.7111 15.8258 15.1298 15.4773 15.4782C15.1289 15.8267 14.7105 16.0006 14.2222 16H1.77778ZM1.77778 14.2222H14.2222V1.77778H11.5556V7.44444C11.5556 7.78519 11.4148 8.04089 11.1333 8.21156C10.8519 8.38222 10.563 8.39318 10.2667 8.24444L8 7.11111L5.73333 8.24444C5.43704 8.39259 5.14815 8.38133 4.86667 8.21067C4.58519 8.04 4.44445 7.78489 4.44445 7.44533V1.77778H1.77778V14.2222Z" fill="#222222"/>
</svg>
